:FULLY-SPECIFIED
:FORCE-ALL-JOINTS-BE-3DOF
:DEGREES
442
root 1.48949 15.2316 -9.1147 5.49212 4.83139 -13.5423
lfemur -46.8501 16.8114 3.9745
ltibia 62.9553 0 0
lfoot -24.9916 -10.2701 0
ltoes -12.7255 0 0
rfemur -14.9411 -3.44768 8.90199
rtibia 38.8284 0 0
rfoot -14.6389 -13.9723 0
rtoes -49.791 0 0
lowerback 6.02945 1.6015 4.3986
upperback 1.01281 2.43843 0.924751
thorax -2.1908 1.18676 -1.7001
lowerneck -7.15866 0.0337935 5.62298
upperneck 0.687406 -0.434285 0.0690367
head 1.41974 -0.189785 -0.949097
lclavicle 2.90226e-14 6.36111e-15 0
lhumerus -39.6318 -28.4329 97.6213
lradius 54.1431 0 0
lwrist 7.92235 0 0
lhand -20.0855 -1.30814 0
lfingers 7.12502 0 0
lthumb 6.25724 28.5794 0
rclavicle 2.90226e-14 6.36111e-15 0
rhumerus -48.3514 -2.52445 -89.7222
rradius 66.3347 0 0
rwrist 12.906 0 0
rhand -30.9208 -29.1118 0
rfingers 7.12502 0 0
rthumb -4.20662 -779.05 0
443
root 1.54028 15.267 -9.04863 5.52434 6.33955 -13.7358
lfemur -47.3873 17.0219 3.76444
ltibia 63.0633 0 0
lfoot -25.0146 -10.522 0
ltoes -12.4734 0 0
rfemur -14.0609 -3.3339 8.93023
rtibia 38.3682 0 0
rfoot -14.3351 -14.2958 0
rtoes -51.1364 0 0
lowerback 5.90596 1.54602 4.46765
upperback 0.956816 2.36481 0.999692
thorax -2.18437 1.14949 -1.65566
lowerneck -7.19111 -0.133756 5.49403
upperneck 0.650074 -0.650611 0.136285
head 1.4031 -0.29799 -0.91341
lclavicle 2.91493e-14 5.21186e-15 0
lhumerus -39.6666 -28.5177 97.8082
lradius 54.216 0 0
lwrist 7.66476 0 0
lhand -20.1604 -1.56145 0
lfingers 7.12502 0 0
lthumb 6.18498 28.3286 0
rclavicle 2.91493e-14 5.21186e-15 0
rhumerus -48.5297 -2.72495 -89.5646
rradius 66.1993 0 0
rwrist 12.873 0 0
rhand -30.9771 -29.3281 0
rfingers 7.12502 0 0
rthumb -4.26097 -779.265 0
444
root 1.59107 15.3024 -8.98255 5.55239 7.27434 -13.9165
lfemur -47.8291 17.2435 3.73835
ltibia 63.2097 0 0
lfoot -25.0582 -10.7702 0
ltoes -12.4297 0 0
rfemur -13.3474 -3.25182 8.93326
rtibia 37.9023 0 0
rfoot -14.3054 -14.5952 0
rtoes -52.2971 0 0
lowerback 5.83423 1.51084 4.52858
upperback 0.921188 2.31959 1.05598
thorax -2.18422 1.1264 -1.62815
lowerneck -7.21074 -0.235688 5.41407
upperneck 0.603544 -0.782301 0.184823
head 1.38309 -0.364169 -0.888433
lclavicle 2.96276e-14 4.41365e-15 0
lhumerus -39.648 -28.5998 97.9024
lradius 54.279 0 0
lwrist 7.48852 0 0
lhand -20.2486 -1.72319 0
lfingers 7.12502 0 0
lthumb 6.10001 28.172 0
rclavicle 2.96276e-14 4.41365e-15 0
rhumerus -48.6434 -2.90724 -89.4715
rradius 66.1084 0 0
rwrist 12.8396 0 0
rhand -31.0357 -29.5098 0
rfingers 7.12502 0 0
rthumb -4.3176 -779.446 0
445
root 1.64186 15.3377 -8.91648 5.57533 7.73146 -14.0829
lfemur -48.1859 17.4718 3.85322
ltibia 63.3819 0 0
lfoot -25.1155 -11.0055 0
ltoes -12.5466 0 0
rfemur -12.7783 -3.19761 8.91807
rtibia 37.4388 0 0
rfoot -14.4818 -14.8695 0
rtoes -53.2794 0 0
lowerback 5.80376 1.49256 4.58237
upperback 0.902219 2.29786 1.09639
thorax -2.18855 1.11507 -1.61484
lowerneck -7.21981 -0.283035 5.37512
upperneck 0.551467 -0.843587 0.216901
head 1.36111 -0.395363 -0.872731
lclavicle 3.03347e-14 3.90825e-15 0
lhumerus -39.5893 -28.6748 97.9215
lradius 54.3307 0 0
lwrist 7.37973 0 0
lhand -20.3497 -1.81247 0
lfingers 7.12502 0 0
lthumb 6.00263 28.0898 0
rclavicle 3.03347e-14 3.90825e-15 0
rhumerus -48.705 -3.07167 -89.4281
rradius 66.0538 0 0
rwrist 12.8045 0 0
rhand -31.0958 -29.6594 0
rfingers 7.12502 0 0
rthumb -4.37566 -779.596 0
446
root 1.69265 15.3731 -8.8504 5.59221 7.80663 -14.2338
lfemur -48.4685 17.7023 4.06606
ltibia 63.5676 0 0
lfoot -25.1791 -11.2187 0
ltoes -12.7762 0 0
rfemur -12.3314 -3.16746 8.89168
rtibia 36.9859 0 0
rfoot -14.7962 -15.118 0
rtoes -54.0896 0 0
lowerback 5.80404 1.48777 4.63003
upperback 0.896204 2.29471 1.12372
thorax -2.1956 1.11305 -1.61304
lowerneck -7.22057 -0.28683 5.36926
upperneck 0.497491 -0.848702 0.234772
head 1.33856 -0.398615 -0.864868
lclavicle 3.1148e-14 3.63748e-15 0
lhumerus -39.5038 -28.7385 97.883
lradius 54.3697 0 0
lwrist 7.32454 0 0
lhand -20.4634 -1.84842 0
lfingers 7.12502 0 0
lthumb 5.89313 28.0628 0
rclavicle 3.1148e-14 3.63748e-15 0
rhumerus -48.7268 -3.21861 -89.42
rradius 66.0274 0 0
rwrist 12.7667 0 0
rhand -31.1565 -29.7798 0
rfingers 7.12502 0 0
rthumb -4.43429 -779.715 0
447
root 1.74344 15.4085 -8.78433 5.60209 7.59555 -14.368
lfemur -48.6874 17.9308 4.33387
ltibia 63.7542 0 0
lfoot -25.2421 -11.4008 0
ltoes -13.0703 0 0
rfemur -11.9846 -3.15756 8.8611
rtibia 36.5517 0 0
rfoot -15.1805 -15.3396 0
rtoes -54.7341 0 0
lowerback 5.82456 1.49309 4.67253
upperback 0.899439 2.30524 1.14072
thorax -2.20357 1.11789 -1.62004
lowerneck -7.21525 -0.258105 5.38851
upperneck 0.445268 -0.811877 0.240685
head 1.31684 -0.380967 -0.863407
lclavicle 3.19449e-14 3.54312e-15 0
lhumerus -39.4045 -28.7865 97.8044
lradius 54.3944 0 0
lwrist 7.30905 0 0
lhand -20.5895 -1.85016 0
lfingers 7.12502 0 0
lthumb 5.7718 28.0713 0
rclavicle 3.19449e-14 3.54312e-15 0
rhumerus -48.7214 -3.34845 -89.4325
rradius 66.0212 0 0
rwrist 12.7247 0 0
rhand -31.217 -29.8734 0
rfingers 7.12502 0 0
rthumb -4.49264 -779.809 0
448
root 1.79423 15.4439 -8.71825 5.604 7.19393 -14.484
lfemur -48.8533 18.1528 4.61366
ltibia 63.9292 0 0
lfoot -25.2972 -11.5423 0
ltoes -13.3813 0 0
rfemur -11.7157 -3.1641 8.83333
rtibia 36.1443 0 0
rfoot -15.5667 -15.5335 0
rtoes -55.2192 0 0
lowerback 5.8548 1.50511 4.71086
upperback 0.908218 2.32452 1.1502
thorax -2.2107 1.12716 -1.63313
lowerneck -7.20611 -0.207891 5.42493
upperneck 0.398448 -0.747345 0.236894
head 1.29734 -0.349462 -0.866913
lclavicle 3.26026e-14 3.56697e-15 0
lhumerus -39.3046 -28.8144 97.7033
lradius 54.4035 0 0
lwrist 7.3194 0 0
lhand -20.7275 -1.83681 0
lfingers 7.12502 0 0
lthumb 5.63896 28.0959 0
rclavicle 3.26026e-14 3.56697e-15 0
rhumerus -48.7012 -3.46155 -89.4509
rradius 66.0271 0 0
rwrist 12.6775 0 0
rhand -31.2762 -29.943 0
rfingers 7.12502 0 0
rthumb -4.54986 -779.878 0
449
root 1.84502 15.4792 -8.65218 5.59701 6.69747 -14.5807
lfemur -48.9767 18.3639 4.86242
ltibia 64.0801 0 0
lfoot -25.3374 -11.6343 0
ltoes -13.661 0 0
rfemur -11.5024 -3.18326 8.81538
rtibia 35.7719 0 0
rfoot -15.8867 -15.6988 0
rtoes -55.5514 0 0
lowerback 5.88425 1.52044 4.746
upperback 0.918835 2.34765 1.15492
thorax -2.21521 1.13842 -1.6496
lowerneck -7.1954 -0.147221 5.47056
upperneck 0.360681 -0.669339 0.225649
head 1.28147 -0.311141 -0.873949
lclavicle 3.29984e-14 3.65083e-15 0
lhumerus -39.2176 -28.818 97.5972
lradius 54.3954 0 0
lwrist 7.34172 0 0
lhand -20.8772 -1.82749 0
lfingers 7.12502 0 0
lthumb 5.49488 28.1171 0
rclavicle 3.29984e-14 3.65083e-15 0
rhumerus -48.6786 -3.55827 -89.4607
rradius 66.0369 0 0
rwrist 12.6237 0 0
rhand -31.3334 -29.9913 0
rfingers 7.12502 0 0
rthumb -4.6051 -779.926 0
450
root 1.89581 15.5146 -8.58611 5.58016 6.20189 -14.6566
lfemur -49.0683 18.5598 5.03716
ltibia 64.1945 0 0
lfoot -25.3554 -11.6675 0
ltoes -13.8616 0 0
rfemur -11.3225 -3.21122 8.81427
rtibia 35.4426 0 0
rfoot -16.0724 -15.8344 0
rtoes -55.7368 0 0
lowerback 5.90241 1.53568 4.77895
upperback 0.927587 2.36971 1.15767
thorax -2.21531 1.14922 -1.66675
lowerneck -7.18535 -0.0871267 5.51745
upperneck 0.335617 -0.592089 0.209203
head 1.27063 -0.273047 -0.883079
lclavicle 3.30098e-14 3.73649e-15 0
lhumerus -39.1564 -28.7929 97.5036
lradius 54.3687 0 0
lwrist 7.36211 0 0
lhand -21.0382 -1.84134 0
lfingers 7.12502 0 0
lthumb 5.33987 28.1154 0
rclavicle 3.30098e-14 3.73649e-15 0
rhumerus -48.6662 -3.63901 -89.4474
rradius 66.0426 0 0
rwrist 12.5621 0 0
rhand -31.3877 -30.0208 0
rfingers 7.12502 0 0
rthumb -4.65749 -779.955 0
